<svg data-v-6805eed4="" version="1.0" xmlns="http://www.w3.org/2000/svg" xmlns:xlink="http://www.w3.org/1999/xlink"
  width="100%" height="100%" viewBox="0 0 200.000000 150.000000" preserveAspectRatio="xMidYMid meet"
  color-interpolation-filters="sRGB" style="margin: auto;">
  <g data-v-6805eed4="" fill="#fefcfb" class="icon-text-wrapper icon-svg-group iconsvg">
    <g class="iconsvg-imagesvg" transform="translate(51.20500183105469,0)">
      <g>
        <rect fill="#fefcfb" fill-opacity="0" stroke-width="2" x="0" y="0" width="60" height="61.89778612251635"
          class="image-rect">
        </rect>
        <svg filter="url(#colors7697402328)" x="0" y="0" width="60" height="61.89778612251635"
          filtersec="colorsf3313292273" class="image-svg-svg primary" style="overflow: visible;">
          <svg xmlns="http://www.w3.org/2000/svg" viewBox="0 1 70.4 72.5">
            <path
              d="M20.4 44.8c0-11.7 14.8-24 14.8-24S50 33 50 44.8c0 8.2-6.6 14.8-14.8 14.8-8.2 0-14.8-6.6-14.8-14.8zm14.8-24L17.4 3C9.7 12.9 2 25.9 2 38.3c0 18.3 14.9 33.2 33.2 33.2m0-.1c18.3 0 33.2-14.9 33.2-33.2C68.4 25.9 60.7 12.8 53 3L35.2 20.8"
              fill="none" stroke="#333" stroke-width="4" stroke-miterlimit="10"></path>
          </svg>
        </svg>
        <defs>
          <filter id="colors7697402328">
            <feColorMatrix type="matrix" values="0 0 0 0 0.9921875  0 0 0 0 0.984375  0 0 0 0 0.98046875  0 0 0 1 0"
              class="icon-fecolormatrix"></feColorMatrix>
          </filter>
          <filter id="colorsf3313292273">
            <feColorMatrix type="matrix" values="0 0 0 0 0.99609375  0 0 0 0 0.99609375  0 0 0 0 0.99609375  0 0 0 1 0"
              class="icon-fecolormatrix"></feColorMatrix>
          </filter>
          <filter id="colorsb981426875">
            <feColorMatrix type="matrix" values="0 0 0 0 0  0 0 0 0 0  0 0 0 0 0  0 0 0 1 0" class="icon-fecolormatrix">
            </feColorMatrix>
          </filter>
        </defs>
      </g>
    </g>
    <g transform="translate(0,68.89778518676758)">
      <g data-gra="path-name" fill-rule="" class="tp-name iconsvg-namesvg">
        <g transform="scale(1)">
          <g>
            <path
              d="M5.55-38.28L11.22-37.95 20.9-38.28Q24.86-38.28 28.21-35.04 31.57-31.79 31.57-28.08 31.57-24.36 30.22-21.39 28.88-18.43 26.73-16.61L26.73-16.61Q22.39-12.76 17.38-12.76L17.38-12.76Q15.18-12.76 14-13.56 12.81-14.36 12.81-15.62 12.81-16.89 13.56-17.63 14.3-18.37 15.04-18.37 15.79-18.37 17.49-17.71 19.2-17.05 20.84-17.05L20.84-17.05Q23.76-17.05 25.85-19.14 27.94-21.23 27.94-25.19 27.94-29.15 24.89-31.82 21.84-34.48 17.38-34.48L17.38-34.48Q14.9-34.48 11.71-34.38L11.71-34.38Q11.05-29.64 11.05-4.46L11.05-4.46Q11.05 0.33 8.03 0.33L8.03 0.33Q6.88 0.33 5.97-0.55 5.06-1.43 5.06-2.78 5.06-4.13 6.24-5.78 7.42-7.42 7.42-9.24L7.42-9.24Q7.42-23.21 6.66-34.1L6.66-34.1 5.55-34.1Q4.67-34.1 3.99-34.68 3.3-35.26 3.3-36.19 3.3-37.13 3.99-37.7 4.67-38.28 5.55-38.28L5.55-38.28ZM42.19-12.93L42.19-12.93 42.63-2.97Q42.63-1.49 41.88-0.58 41.14 0.33 40.1 0.33 39.05 0.33 38.39-0.52 37.73-1.38 37.73-2.86 37.73-4.34 38.01-7.09L38.01-7.09Q38.56-12.6 38.56-16.39L38.56-16.39Q38.56-18.04 37.54-19.55 36.52-21.07 36.52-22.27 36.52-23.48 37.35-24.28 38.17-25.08 39.22-25.08L39.22-25.08Q41.97-25.08 41.97-20.73L41.97-20.73 41.97-18.59Q43.62-21.56 45.93-23.32 48.23-25.08 50.16-25.08 52.09-25.08 53.1-24.12 54.12-23.16 54.12-21.56 54.12-19.96 53.35-18.89 52.58-17.82 51.7-17.82 50.82-17.82 50.35-18.29 49.89-18.75 49.67-19.28 49.45-19.8 48.84-20.27 48.23-20.73 47.3-20.73L47.3-20.73Q45.71-20.73 44.11-18.64 42.52-16.55 42.19-12.93ZM59.4-4.01L59.4-4.01Q59.4-10.95 59.13-16.17 58.85-21.39 58.85-22.33 58.85-23.27 59.59-24.17 60.34-25.08 61.38-25.08 62.42-25.08 63.09-24.23 63.74-23.38 63.74-21.75 63.74-20.13 63.36-16.31 62.98-12.48 62.98-8.36L62.98-8.36Q62.98-6.71 63.66-5.2 64.35-3.69 64.35-2.45 64.35-1.21 63.66-0.44 62.98 0.33 61.79 0.33 60.61 0.33 60-0.99 59.4-2.31 59.4-4.01ZM61.16-31.3Q59.95-31.3 59.23-31.96 58.52-32.62 58.52-33.88 58.52-35.15 59.4-36.05 60.28-36.96 61.49-36.96 62.7-36.96 63.44-36.27 64.19-35.59 64.19-34.32 64.19-33.05 63.28-32.17 62.37-31.3 61.16-31.3ZM76.34-15.73L76.34-15.73 76.67-2.31Q76.67-1.16 76.01-0.41 75.35 0.33 74.3 0.33 73.26 0.33 72.52-0.41 71.77-1.16 71.77-2.31L71.77-2.31 72.16-13.2Q72.16-13.2 71.77-22.39L71.77-22.39Q71.77-23.54 72.52-24.31 73.26-25.08 74.3-25.08 75.35-25.08 76.01-24.34 76.67-23.59 76.67-22.5 76.67-21.39 76.61-20.84L76.61-20.84Q79.69-25.08 83.71-25.08L83.71-25.08Q89.48-25.08 91.13-17.32L91.13-17.32 93.22-7.87Q93.55-6.6 94.57-5.14 95.59-3.69 95.59-2.53L95.59-2.53Q95.59 0.33 92.84 0.33 90.09 0.33 89.26-4.01L89.26-4.01 87.17-15.51Q86.13-21.01 81.51-21.01L81.51-21.01Q79.14-21.01 77.82-19.41 76.5-17.82 76.34-15.73ZM112.8-21.01L112.8-21.01Q112.53-21.01 105.93-21.45L105.93-21.45Q105.93-20.73 105.71-16 105.49-11.28 105.49-8.99 105.49-6.71 106.51-5.2 107.52-3.69 107.52-2.48 107.52-1.26 106.7-0.47 105.87 0.33 104.83 0.33L104.83 0.33Q102.08 0.33 102.08-4.01L102.08-4.01 101.86-15.18Q101.86-18.59 101.69-21.29L101.69-21.29 100.37-21.29Q99.6-21.29 99.11-21.75 98.61-22.22 98.61-23.05 98.61-23.87 99.11-24.34 99.6-24.8 100.37-24.8L100.37-24.8 101.53-24.8Q101.42-27.66 101.42-29.18 101.42-30.69 102.16-31.6 102.9-32.51 103.95-32.51 104.99-32.51 105.65-31.65 106.31-30.8 106.31-28.88 106.31-26.95 106.15-24.64L106.15-24.64 112.8-25.08Q114.95-25.08 114.95-23.05 114.95-21.01 112.8-21.01ZM124.63-35.31Q124.63-35.15 124.38-30.28 124.13-25.41 124.13-19.52 124.13-13.64 124.38-8.42 124.63-3.19 124.63-2.31 124.63-1.43 123.89-0.55 123.14 0.33 121.99 0.33 120.83 0.33 120.09-0.55 119.35-1.43 119.35-2.31 119.35-3.19 119.6-8.42 119.84-13.64 119.84-19.52 119.84-25.41 119.6-30.28 119.35-35.15 119.35-35.31L119.35-35.31Q119.35-36.47 120.09-37.37 120.83-38.28 121.99-38.28 123.14-38.28 123.89-37.37 124.63-36.47 124.63-35.31L124.63-35.31ZM133.81-19.99Q133.81-13.31 137.75-8.36 141.68-3.41 147.84-3.41 154-3.41 157.6-7.34 161.2-11.28 161.2-17.96 161.2-24.64 157.27-29.59 153.34-34.54 147.15-34.54 140.96-34.54 137.39-30.61 133.81-26.68 133.81-19.99ZM146.19 0.33L146.19 0.33Q139.04 0.33 134.17-4.81 129.3-9.96 129.3-17.27L129.3-17.27Q129.3-26.4 134.8-32.34 140.3-38.28 148.83-38.28L148.83-38.28Q155.98-38.28 160.85-33.14 165.71-28 165.71-20.68L165.71-20.68Q165.71-11.55 160.21-5.61 154.71 0.33 146.19 0.33Z"
              transform="translate(-3.299999952316284, 38.279998779296875)"></path>
          </g>
          <!---->
          <!---->
          <!---->
          <!---->
          <!---->
          <!---->
          <!---->
        </g>
      </g>
      <!---->
    </g>
  </g>
  <defs v-gra="od"></defs>
</svg>
